<?xml version="1.0" standalone="no"?>
<!DOCTYPE svg PUBLIC "-//W3C//DTD SVG 20010904//EN"
 "http://www.w3.org/TR/2001/REC-SVG-20010904/DTD/svg10.dtd">
<svg version="1.0" xmlns="http://www.w3.org/2000/svg"
 width="437.000000pt" height="571.000000pt" viewBox="0 0 437.000000 571.000000"
 preserveAspectRatio="xMidYMid meet">

<g transform="translate(0.000000,571.000000) scale(0.100000,-0.100000)"
fill="#000000" stroke="none">
<path d="M0 4098 c0 -897 5 -1670 10 -1741 49 -668 407 -1343 970 -1828 331
-286 865 -512 1210 -512 291 -1 728 166 1065 407 121 86 216 170 345 302 421
433 702 1016 759 1573 7 68 11 664 11 1757 l0 1654 -2185 0 -2185 0 0 -1612z
m4268 -160 l-3 -1673 -23 -115 c-141 -714 -574 -1356 -1166 -1729 -224 -141
-458 -235 -731 -292 -131 -27 -195 -26 -340 5 -439 94 -822 310 -1150 647
-384 395 -628 859 -727 1384 l-23 120 -3 1663 -3 1662 2086 0 2086 0 -3 -1672z"/>
<path d="M2155 5442 l-30 -87 -92 -3 c-51 -1 -93 -7 -93 -12 0 -4 32 -31 70
-59 39 -28 70 -55 70 -59 0 -4 -11 -43 -25 -87 -13 -43 -22 -81 -20 -83 3 -3
78 47 139 92 8 6 37 -9 85 -43 40 -29 75 -50 78 -48 2 3 -7 43 -21 89 -26 81
-26 83 -7 98 10 8 45 35 77 60 l59 45 -99 5 -99 5 -28 84 c-16 46 -30 85 -32
87 -1 2 -16 -36 -32 -84z"/>
<path d="M2043 4944 c-146 -71 -174 -96 -156 -143 8 -23 6 -29 -14 -44 -27
-21 -31 -63 -8 -93 19 -26 19 -34 -4 -34 -33 0 -209 -50 -284 -80 -39 -16 -95
-46 -124 -66 -72 -50 -177 -163 -245 -265 -105 -156 -192 -219 -306 -219 -53
0 -118 -16 -127 -30 -4 -6 -3 -19 0 -30 8 -27 56 -26 152 0 55 16 77 18 93 10
30 -16 25 -36 -27 -92 -43 -45 -45 -49 -18 -36 43 22 75 31 75 20 0 -18 -63
-103 -91 -123 -16 -11 -43 -24 -60 -29 -28 -8 -31 -7 -26 10 3 11 4 20 2 20
-1 0 -26 -31 -54 -70 -29 -38 -57 -73 -64 -77 -9 -6 -10 -33 -2 -113 l10 -105
20 41 c14 28 17 40 8 37 -21 -8 -15 46 11 103 34 72 65 94 137 94 86 0 96 -6
63 -41 -34 -35 -31 -36 42 -3 153 67 317 200 730 590 140 132 141 135 184 231
65 150 75 171 121 268 41 87 43 89 47 55 2 -19 -1 -36 -7 -38 -8 -3 -11 -167
-11 -548 l0 -544 -42 0 c-24 0 -52 -3 -64 -6 -17 -5 -22 1 -33 38 l-13 43 -19
-51 c-14 -36 -26 -54 -41 -58 -30 -7 -31 -5 -13 37 19 47 19 88 -1 135 l-16
37 -10 -35 c-5 -19 -30 -59 -54 -89 -27 -32 -49 -72 -56 -100 l-12 -46 -11 45
-12 45 -18 -40 c-9 -22 -20 -67 -24 -100 l-6 -60 -17 30 -16 30 -12 -30 c-7
-16 -15 -49 -17 -72 -6 -47 -6 -47 -33 -33 -22 12 -25 4 -34 -86 -3 -37 -16
-69 -46 -117 -41 -65 -74 -152 -65 -167 3 -4 -6 -27 -19 -51 -41 -75 -50 -137
-31 -210 8 -35 17 -64 19 -66 1 -2 8 15 15 36 19 65 74 96 122 71 23 -13 49
-61 49 -92 1 -20 3 -18 18 12 44 87 91 128 132 115 28 -9 58 -56 73 -115 l14
-53 17 44 c26 67 64 119 86 119 42 0 71 -24 101 -85 28 -57 30 -68 27 -155
l-3 -93 -75 -39 c-41 -21 -80 -38 -87 -38 -7 0 -34 13 -60 28 -69 40 -185 87
-283 113 -72 20 -110 23 -253 24 -92 0 -167 3 -167 7 0 4 11 31 24 60 13 29
54 121 90 203 37 83 71 159 76 170 5 11 34 75 64 143 l54 122 -289 0 -289 0 0
-23 c0 -36 -81 -158 -102 -153 -22 5 -21 6 -3 -35 8 -20 14 -27 15 -16 1 45
78 147 112 147 6 0 9 -24 6 -65 -3 -53 -10 -73 -37 -112 l-33 -48 39 38 c21
20 44 37 51 37 17 0 15 -93 -3 -137 l-16 -37 26 24 25 23 2 -29 c3 -48 -3
-106 -13 -133 -10 -24 -9 -24 9 -8 10 9 22 17 26 17 5 0 7 -31 4 -69 -3 -55
-9 -76 -33 -112 -17 -24 -37 -59 -46 -79 l-16 -35 -17 52 c-10 29 -16 63 -15
75 1 13 -3 43 -10 66 -7 24 -11 56 -10 70 2 15 -3 37 -10 50 -20 37 -26 119
-10 139 9 11 10 14 1 9 -7 -4 -12 -2 -12 6 0 10 -2 10 -8 1 -6 -9 -18 -6 -47
14 -39 26 -40 26 -18 2 11 -13 30 -42 42 -64 21 -42 53 -165 42 -165 -3 0 -21
9 -38 20 -28 16 -33 17 -33 5 0 -9 7 -18 15 -22 19 -7 69 -103 80 -150 6 -29
4 -32 -12 -26 -10 3 -24 11 -31 16 -29 22 -21 -4 12 -41 19 -21 47 -63 61 -93
l25 -54 0 40 c0 27 9 54 26 80 29 45 82 91 91 81 9 -9 7 -96 -2 -127 -7 -23
-6 -23 7 -5 20 26 29 10 35 -64 5 -52 2 -66 -31 -132 -20 -40 -36 -79 -36 -86
0 -6 -5 -12 -11 -12 -13 0 -37 57 -43 101 -8 64 -26 94 -65 106 -20 6 -37 10
-39 9 -1 -2 11 -17 27 -34 27 -30 87 -159 77 -169 -2 -3 -14 1 -26 7 -35 19
-35 3 -1 -29 28 -26 66 -97 85 -159 7 -21 5 -22 -21 -17 -15 3 -21 2 -13 -1 8
-4 26 -16 39 -28 l23 -21 -6 55 c-20 172 -20 170 21 239 22 35 43 64 49 65 5
0 13 -30 18 -67 8 -60 7 -74 -12 -120 -25 -59 -28 -139 -8 -176 13 -23 14 -21
18 35 4 59 25 116 42 118 13 1 44 -92 45 -136 l1 -38 174 0 c140 0 189 4 252
20 44 11 116 25 160 31 77 11 91 10 215 -17 175 -38 300 -39 449 -5 139 32
260 32 395 0 76 -18 136 -24 253 -27 137 -3 153 -5 150 -20 -10 -53 -149 -56
-387 -7 -93 19 -188 35 -211 35 -23 0 -110 -13 -193 -29 -236 -46 -219 -46
-383 -10 -213 46 -224 46 -418 4 -155 -33 -181 -36 -303 -33 -109 2 -130 1
-116 -10 9 -6 27 -12 40 -12 13 0 52 -9 86 -21 76 -26 145 -22 303 16 95 24
123 27 214 22 64 -3 136 -14 185 -28 111 -31 225 -30 377 5 136 30 265 34 368
10 36 -8 102 -22 147 -30 l83 -16 -26 -20 c-28 -23 -36 -22 -188 11 -133 28
-228 27 -378 -6 -157 -34 -278 -35 -393 -3 -119 33 -249 37 -360 11 -49 -12
-118 -27 -152 -33 -61 -11 -61 -11 -47 -33 8 -13 14 -27 13 -31 -6 -33 5 -31
31 4 17 23 32 42 34 42 2 0 19 -7 38 -14 31 -13 42 -13 94 1 86 24 220 21 319
-6 121 -34 257 -38 380 -11 184 39 238 44 323 30 88 -14 128 -16 158 -6 17 6
27 -2 56 -44 l36 -52 24 32 c37 51 100 82 176 88 57 4 96 -3 255 -43 l187 -47
73 16 c94 21 110 31 63 40 -40 8 -66 38 -66 76 0 23 -3 26 -33 22 -46 -5 -77
22 -84 76 -3 23 -8 42 -10 42 -14 0 -49 -60 -58 -99 -15 -67 -43 -78 -140 -55
-101 24 -107 29 -72 59 23 20 39 25 83 25 41 0 64 6 96 26 l41 26 -32 16 c-36
17 -55 54 -47 88 6 22 6 22 -34 6 -36 -14 -43 -14 -56 -1 -21 22 -30 85 -13
105 22 27 59 36 83 21 12 -8 38 -12 62 -9 29 3 46 -1 58 -13 15 -16 19 -14 66
25 28 23 50 43 50 44 0 1 -14 3 -32 4 -36 3 -54 15 -78 55 l-17 27 -26 -20
c-36 -29 -84 -27 -98 4 -23 49 13 109 60 104 40 -4 58 12 30 26 -25 13 -56 53
-61 79 -3 15 6 18 63 22 45 2 75 -1 94 -11 35 -18 45 -18 45 1 0 9 8 14 22 12
19 -2 24 5 31 43 13 68 20 150 13 150 -4 0 -18 -7 -31 -16 -24 -16 -55 -15
-97 1 -14 5 -17 0 -20 -31 -2 -31 -8 -40 -29 -48 -43 -15 -59 -2 -59 47 0 41
37 138 58 151 5 3 -2 28 -16 56 -14 28 -22 53 -19 56 3 3 24 0 46 -7 50 -15
111 -78 111 -114 0 -17 4 -23 14 -19 9 3 17 -3 21 -17 6 -19 12 -9 35 56 53
153 100 234 100 173 0 -13 14 -47 30 -75 l30 -53 44 6 c36 5 47 3 64 -14 l21
-21 35 33 c30 28 56 71 56 94 0 4 -20 6 -44 4 -40 -4 -46 -1 -75 34 -17 21
-31 34 -31 28 0 -16 -59 -46 -79 -39 -43 13 -45 32 -9 77 19 24 44 64 55 89
l21 46 -44 -5 c-34 -3 -49 0 -64 13 -20 18 -21 18 -44 -4 -35 -33 -70 -25 -74
16 -2 24 2 35 17 45 18 11 21 23 21 87 l0 74 -21 -27 c-21 -27 -57 -34 -76
-15 -8 8 -14 1 -23 -25 -10 -32 -15 -36 -46 -36 -19 0 -34 -4 -34 -10 0 -6
-100 -10 -279 -10 l-279 0 79 -177 c44 -98 86 -191 94 -208 8 -16 32 -70 54
-120 21 -49 50 -115 64 -145 l25 -55 -172 0 c-155 0 -180 -3 -271 -28 -57 -15
-150 -52 -216 -85 l-116 -58 -49 21 c-27 12 -68 34 -92 49 l-42 26 0 76 c0
105 16 159 60 205 52 55 81 53 121 -8 16 -27 32 -58 35 -70 9 -35 18 -28 39
34 13 35 30 64 48 77 l28 21 37 -21 c24 -14 48 -42 69 -80 26 -47 33 -54 33
-34 0 36 35 88 65 96 52 13 105 -31 105 -86 0 -35 19 -31 29 7 18 65 14 164
-10 208 -13 24 -21 62 -22 95 -2 46 -10 69 -54 145 -43 75 -53 102 -59 158 -4
37 -9 67 -11 67 -2 0 -13 -4 -23 -10 -16 -8 -19 -5 -25 23 -3 17 -11 51 -18
75 l-11 42 -17 -31 -16 -32 -6 54 c-3 30 -14 74 -25 99 l-20 45 -7 -30 c-12
-52 -18 -63 -22 -40 -2 11 -6 29 -8 40 -2 11 -24 46 -49 78 -25 32 -50 74 -57
94 l-12 36 -13 -24 c-18 -32 -17 -111 1 -156 8 -20 14 -38 11 -40 -10 -10 -55
22 -60 43 -4 13 -11 36 -18 51 l-11 28 -12 -40 -12 -40 -64 4 c-35 2 -65 4
-67 5 -1 2 -1 262 0 579 l3 577 54 -123 c30 -67 65 -144 77 -172 12 -27 34
-75 47 -105 27 -61 148 -184 422 -430 246 -221 326 -280 468 -344 122 -55 123
-55 175 8 14 18 67 22 77 6 3 -5 16 -10 29 -10 24 0 56 -28 56 -49 0 -21 -43
-29 -82 -15 -36 12 -39 12 -49 -9 -7 -12 -17 -25 -23 -29 -14 -10 -63 -10 -68
0 -1 4 -28 15 -58 26 -194 66 -378 205 -758 569 -51 49 -95 87 -97 85 -4 -4
71 -180 120 -283 8 -16 41 -91 74 -165 l60 -135 70 -3 71 -3 0 -74 0 -75 70 0
70 0 0 50 0 50 70 0 70 0 0 -105 0 -105 75 0 75 0 0 40 0 40 78 0 c43 0 82 -3
86 -7 4 -5 34 -8 66 -8 l58 0 11 36 c6 20 11 53 11 73 0 37 15 47 38 24 21
-21 37 7 34 60 -1 40 2 53 23 72 14 13 25 34 25 47 0 22 -1 23 -16 9 -21 -21
-61 -20 -73 1 -9 16 -11 16 -28 2 -37 -33 -83 -27 -83 10 0 20 -43 71 -60 71
-6 0 -15 -11 -20 -25 -7 -17 -17 -25 -34 -25 -22 0 -24 -3 -19 -34 4 -28 2
-34 -17 -39 -33 -9 -49 2 -59 40 -11 40 -1 77 27 94 19 12 19 13 0 46 -11 18
-24 33 -28 33 -14 0 -40 30 -40 46 0 32 44 37 118 15 87 -27 146 -25 150 5 5
33 -19 44 -114 53 -51 4 -108 16 -134 28 -53 23 -116 89 -187 193 -95 139
-192 238 -293 297 -58 34 -309 113 -360 113 -24 0 -25 6 -5 26 24 24 19 79 -9
102 -17 13 -22 23 -15 33 15 24 10 55 -13 77 -23 20 -267 143 -284 141 -5 0
-69 -29 -141 -65z m-822 -1061 c-32 -61 -66 -90 -127 -108 -31 -9 -58 -14 -61
-11 -7 6 41 88 60 104 15 13 113 50 135 51 9 1 7 -10 -7 -36z m2014 7 c7 -6
29 -8 52 -4 30 4 44 2 56 -11 21 -20 6 -55 -23 -55 -15 0 -19 -8 -22 -37 -4
-47 -25 -50 -53 -7 -11 17 -36 37 -56 46 -21 9 -44 30 -58 53 l-22 38 56 -6
c31 -3 62 -11 70 -17z m-2157 -185 c-34 -31 -62 -43 -146 -60 -32 -7 -33 -6
-22 14 6 12 29 35 52 51 34 25 51 30 97 30 l56 -1 -37 -34z m2524 -562 c38
-23 115 -147 120 -193 3 -34 2 -35 -34 -38 -20 -2 -50 3 -65 11 -27 15 -28 14
-38 -16 -12 -38 -55 -58 -79 -37 -21 17 -21 95 0 112 8 7 25 21 36 31 l20 19
-25 26 c-28 31 -57 73 -57 84 0 4 17 9 38 11 20 2 41 4 45 5 5 1 22 -6 39 -15z"/>
<path d="M1685 4029 c-222 -210 -400 -359 -502 -420 -94 -57 -204 -105 -258
-112 -20 -3 -38 -7 -40 -8 -1 -2 -6 -23 -10 -46 l-7 -43 76 0 76 0 0 -40 0
-40 76 0 77 0 -7 105 -7 105 76 0 75 0 0 -50 0 -50 70 0 70 0 0 75 0 75 71 0
70 0 24 53 c12 28 51 115 85 192 34 77 70 158 80 180 50 109 82 186 77 184 -1
0 -78 -72 -172 -160z"/>
<path d="M727 3623 c-4 -3 -7 -11 -7 -17 0 -6 5 -5 12 2 6 6 9 14 7 17 -3 3
-9 2 -12 -2z"/>
<path d="M571 3494 c0 -11 3 -14 6 -6 3 7 2 16 -1 19 -3 4 -6 -2 -5 -13z"/>
<path d="M3882 3490 c-14 -22 -61 -27 -80 -8 -9 9 -12 7 -12 -11 0 -21 -4 -23
-40 -19 -22 2 -40 2 -40 0 0 -18 36 -63 54 -68 21 -5 24 -13 28 -65 3 -43 10
-65 26 -82 12 -13 22 -29 22 -36 0 -7 11 -26 24 -42 l24 -28 7 26 c3 15 17 40
31 56 13 16 24 32 24 37 0 5 2 15 5 22 4 10 -3 14 -22 13 -19 0 -31 7 -40 25
-9 19 -19 24 -41 22 -16 -2 -34 3 -40 11 -19 23 -4 47 29 47 16 0 29 5 29 10
0 6 6 10 13 10 7 0 13 18 15 50 2 28 2 50 0 50 -2 0 -9 -9 -16 -20z"/>
<path d="M619 3398 c-31 -38 -34 -47 -27 -74 9 -36 39 -42 48 -10 5 17 8 17
38 -9 l33 -27 -21 35 c-12 20 -25 57 -28 82 l-7 46 -36 -43z"/>
<path d="M790 3248 l-25 -33 -6 30 c-4 17 -7 22 -8 13 0 -10 -5 -18 -10 -18
-6 0 -6 -13 1 -32 10 -29 12 -30 24 -12 7 10 23 29 35 40 12 12 20 27 17 34
-2 6 -14 -4 -28 -22z"/>
<path d="M461 2934 c0 -11 3 -14 6 -6 3 7 2 16 -1 19 -3 4 -6 -2 -5 -13z"/>
<path d="M471 2824 c0 -11 3 -14 6 -6 3 7 2 16 -1 19 -3 4 -6 -2 -5 -13z"/>
<path d="M642 2680 c0 -14 2 -19 5 -12 2 6 2 18 0 25 -3 6 -5 1 -5 -13z"/>
<path d="M3720 2639 c0 -11 7 -49 16 -84 15 -61 18 -65 45 -65 27 0 59 -22 59
-42 0 -5 14 2 31 16 17 15 43 26 59 26 28 0 43 16 67 71 l11 26 -39 -13 c-50
-18 -86 -5 -100 36 -10 28 -12 29 -32 15 -31 -22 -65 -18 -92 10 -23 23 -25
23 -25 4z"/>
<path d="M526 2505 c8 -37 14 -45 14 -19 0 10 -5 26 -10 34 -8 11 -9 7 -4 -15z"/>
<path d="M3707 2382 c-21 -10 -35 -11 -58 -3 -26 9 -30 8 -25 -7 22 -75 27
-111 21 -151 -5 -39 -3 -48 14 -58 18 -12 22 -9 37 20 20 40 56 71 114 99 l44
22 -39 8 c-47 10 -63 22 -73 57 -7 25 -8 26 -35 13z"/>
<path d="M660 2306 c0 -2 8 -10 18 -17 15 -13 16 -12 3 4 -13 16 -21 21 -21
13z"/>
<path d="M3624 2048 c7 -30 19 -60 41 -98 8 -14 15 -35 15 -47 0 -17 6 -23 22
-23 12 0 32 -9 44 -21 l22 -20 58 54 c51 48 55 54 32 50 -30 -6 -68 25 -68 56
0 19 -2 19 -34 6 -45 -19 -91 -4 -118 39 -20 31 -20 31 -14 4z"/>
<path d="M641 1964 c0 -11 3 -14 6 -6 3 7 2 16 -1 19 -3 4 -6 -2 -5 -13z"/>
<path d="M990 1854 c0 -6 7 -19 16 -30 14 -18 14 -18 3 6 -14 31 -19 36 -19
24z"/>
<path d="M1020 1791 c0 -6 4 -13 10 -16 6 -3 7 1 4 9 -7 18 -14 21 -14 7z"/>
<path d="M910 1715 c19 -19 36 -35 39 -35 3 0 -10 16 -29 35 -19 19 -36 35
-39 35 -3 0 10 -16 29 -35z"/>
<path d="M1175 1740 c3 -5 11 -10 16 -10 6 0 7 5 4 10 -3 6 -11 10 -16 10 -6
0 -7 -4 -4 -10z"/>
<path d="M1108 1723 c12 -2 30 -2 40 0 9 3 -1 5 -23 4 -22 0 -30 -2 -17 -4z"/>
<path d="M888 1633 c7 -3 16 -2 19 1 4 3 -2 6 -13 5 -11 0 -14 -3 -6 -6z"/>
<path d="M1738 1613 c-21 -2 -38 -8 -38 -12 0 -11 200 -59 300 -72 107 -15
391 -6 482 15 37 8 104 25 150 38 l83 22 -53 10 c-54 9 -125 0 -307 -38 -109
-24 -233 -20 -350 9 -103 26 -202 36 -267 28z"/>
<path d="M1585 1568 c-2 -7 -13 -38 -24 -68 -15 -40 -18 -56 -9 -61 17 -11 28
-1 28 23 0 18 4 20 40 14 34 -5 41 -3 55 18 21 32 7 60 -36 75 -41 14 -49 14
-54 -1z m49 -24 c19 -7 22 -44 4 -44 -23 0 -41 18 -35 34 7 18 9 18 31 10z"/>
<path d="M2717 1552 c-27 -30 -17 -101 17 -124 40 -27 117 13 108 57 -6 33
-14 37 -46 25 -31 -11 -35 -35 -5 -27 15 4 19 1 17 -11 -4 -21 -44 -28 -64
-12 -35 30 -3 107 35 83 20 -13 47 -1 37 16 -12 18 -81 13 -99 -7z"/>
<path d="M1716 1474 c-9 -35 -16 -67 -16 -71 0 -8 77 -33 100 -33 6 0 10 7 10
15 0 8 -9 15 -19 15 -33 0 -51 11 -51 31 0 16 5 18 28 13 42 -10 44 -10 49 3
3 7 -10 15 -32 19 -26 5 -35 11 -32 23 3 17 4 17 55 6 24 -5 32 -3 32 8 0 9
-19 17 -54 23 l-54 10 -16 -62z"/>
<path d="M2621 1493 c13 -58 12 -60 -29 -20 -49 48 -74 50 -62 5 5 -18 14 -52
20 -76 14 -55 34 -45 25 12 l-7 41 39 -37 c44 -43 70 -39 59 8 -21 85 -28 104
-40 104 -11 0 -12 -8 -5 -37z"/>
<path d="M1877 1478 c-3 -13 -9 -47 -13 -75 -6 -45 -4 -53 10 -53 11 0 16 9
17 28 0 15 4 36 9 47 6 15 9 8 9 -27 1 -40 4 -48 19 -48 13 0 24 14 35 42 21
51 28 47 17 -9 -6 -33 -4 -43 6 -43 14 0 19 15 29 91 5 39 3 48 -12 53 -19 8
-40 -14 -50 -51 -8 -33 -23 -28 -23 6 0 16 -3 36 -6 45 -9 24 -41 19 -47 -6z"/>
<path d="M2395 1433 c-9 -32 -19 -66 -21 -75 -7 -24 17 -23 39 2 20 24 55 26
63 5 7 -16 34 -21 34 -6 0 21 -67 126 -82 129 -13 3 -21 -11 -33 -55z m55 -25
c0 -4 -7 -8 -15 -8 -10 0 -15 10 -15 28 1 26 1 26 15 8 8 -11 15 -23 15 -28z"/>
<path d="M2103 1468 c-5 -7 -21 -41 -36 -75 -21 -51 -24 -63 -11 -63 8 0 17 7
20 15 9 24 70 20 77 -5 3 -11 12 -20 21 -20 20 0 21 -9 -12 79 -28 76 -41 92
-59 69z m27 -64 c0 -8 -7 -14 -15 -14 -17 0 -18 2 -9 24 7 18 24 12 24 -10z"/>
<path d="M2230 1400 l0 -70 56 0 c40 0 54 3 51 13 -2 7 -18 11 -40 9 l-37 -4
0 61 c0 48 -3 61 -15 61 -12 0 -15 -14 -15 -70z"/>
<path d="M2160 1129 c-22 -40 -22 -43 -6 -70 l17 -29 -29 0 c-20 0 -35 9 -50
30 -30 39 -44 38 -68 -7 -17 -32 -25 -38 -58 -41 -34 -3 -37 -1 -31 17 5 17 2
21 -18 21 -51 0 -76 -70 -37 -105 17 -15 24 -16 46 -7 35 17 503 16 539 0 24
-11 29 -9 46 12 10 14 19 33 19 43 0 25 -36 57 -64 57 -19 0 -23 -4 -19 -20 4
-16 0 -20 -21 -20 -37 0 -66 17 -66 39 0 24 -25 45 -45 37 -8 -3 -20 -17 -27
-31 -8 -18 -19 -25 -40 -25 -32 0 -33 3 -14 33 13 20 12 26 -11 65 -14 23 -28
42 -32 42 -4 0 -18 -19 -31 -41z"/>
<path d="M1184 995 c10 -51 50 -122 90 -157 41 -36 112 -51 174 -37 26 5 79
28 117 51 84 48 116 55 175 34 l45 -15 -39 35 c-54 47 -98 58 -167 39 -217
-59 -239 -57 -349 42 l-53 48 7 -40z"/>
<path d="M3178 984 c-111 -96 -131 -98 -347 -39 -67 18 -111 9 -161 -35 -23
-20 -28 -29 -15 -25 69 22 101 18 171 -22 124 -70 171 -81 247 -59 58 17 94
49 125 111 19 39 44 115 37 115 -2 0 -27 -21 -57 -46z"/>
<path d="M2167 874 c-32 -27 -51 -29 -87 -9 -30 17 -84 19 -111 5 -23 -13 -26
-72 -4 -90 18 -15 45 -6 45 15 0 19 39 20 46 1 3 -8 -9 -42 -26 -76 -45 -89
-39 -112 59 -214 43 -45 83 -91 90 -104 l12 -23 29 39 c15 22 56 69 90 105 78
83 85 114 45 197 -15 32 -25 65 -22 74 9 23 38 20 44 -5 9 -32 45 -21 57 19
18 63 -47 92 -130 57 -41 -17 -79 -11 -97 15 -12 17 -14 17 -40 -6z"/>
<path d="M1642 765 c-24 -7 -53 -21 -63 -31 -28 -26 -134 -31 -195 -10 -26 9
-49 14 -51 12 -8 -8 78 -123 101 -136 54 -28 118 -7 181 61 17 17 56 51 89 75
l58 44 -38 -1 c-22 0 -58 -6 -82 -14z"/>
<path d="M2705 738 c33 -25 74 -60 90 -77 66 -71 135 -91 189 -56 24 16 100
124 92 132 -1 2 -22 -4 -46 -12 -54 -19 -147 -19 -180 0 -60 35 -98 48 -150
53 l-55 5 60 -45z"/>
<path d="M1778 710 c-27 -15 -44 -35 -67 -82 -17 -35 -37 -71 -44 -80 -19 -24
-60 -38 -110 -38 l-42 -1 32 -29 c59 -53 152 -63 203 -22 17 14 24 34 31 97 5
51 18 97 33 127 28 53 21 58 -36 28z"/>
<path d="M2594 687 c20 -34 29 -67 36 -128 9 -93 23 -113 86 -125 53 -10 97 3
140 41 l39 34 -43 1 c-78 0 -104 19 -146 103 -37 76 -61 100 -111 113 l-27 7
26 -46z"/>
</g>
</svg>
